<?xml version="1.0" encoding="UTF-8" standalone="no"?>
<!-- Created with Inkscape (http://www.inkscape.org/) -->

<svg
   width="179.66371mm"
   height="186.06078mm"
   viewBox="0 0 179.66371 186.06078"
   version="1.1"
   id="svg5"
   xmlns="http://www.w3.org/2000/svg"
   xmlns:svg="http://www.w3.org/2000/svg">
  <defs
     id="defs2" />
  <g
     id="layer1"
     transform="translate(-22.839087,-32.967864)">
    <rect
       style="fill:#4f928b;fill-opacity:1;stroke-width:0.250762"
       id="rect111-4"
       width="18.053936"
       height="135.92015"
       x="119.50851"
       y="32.967865"
       ry="8.5311584"
       rx="0" />
    <g
       id="g394"
       transform="matrix(0.77181416,0,0,0.77181416,21.076644,-0.57637613)"
       style="fill:#254441;fill-opacity:1;stroke-width:1.00024;stroke-dasharray:none">
      <rect
         style="fill:#254441;fill-opacity:1;stroke-width:1.00024;stroke-dasharray:none"
         id="rect111-5"
         width="20.098831"
         height="82.998047"
         x="175.93378"
         y="36.922695"
         ry="7.8121839"
         rx="0"
         transform="rotate(45)" />
      <rect
         style="fill:#254441;fill-opacity:1;stroke-width:1.00024;stroke-dasharray:none"
         id="rect111-5-8"
         width="20.098831"
         height="82.998047"
         x="-56.877518"
         y="112.89055"
         ry="7.8121839"
         rx="0"
         transform="rotate(-45)" />
    </g>
    <path
       style="fill:#254441;fill-opacity:1;stroke-width:1.19332;stroke-dasharray:none"
       d="m 28.411329,218.54763 c -1.937258,-0.71913 -4.247332,-2.85223 -5.007541,-4.62391 -0.471921,-1.09982 -0.5647,-11.39303 -0.5647,-62.6494 0,-42.25602 0.135011,-61.691468 0.434062,-62.484675 0.541748,-1.436942 2.64954,-3.672131 4.269195,-4.527233 0.710126,-0.374912 2.260558,-0.65451 3.680812,-0.663776 4.01252,-0.02619 7.085216,2.128234 8.327588,5.838881 0.66462,1.985057 0.66462,121.609023 0,123.594083 -1.513824,4.5214 -6.785964,7.13207 -11.139416,5.51603 z"
       id="path5356" />
    <path
       style="fill:#4f928b;fill-opacity:1;stroke-width:1.19332;stroke-dasharray:none"
       d="m 192.5156,168.15928 c -1.11004,-0.31291 -5.68533,-4.64344 -20.37752,-19.28738 -10.42036,-10.38613 -19.30031,-19.56669 -19.73324,-20.40124 -0.93373,-1.79996 -0.99266,-3.14765 -0.2159,-4.93718 0.32503,-0.7488 8.9186,-9.63302 19.93773,-20.61204 16.97761,-16.915824 19.55533,-19.330254 20.89746,-19.573764 2.00186,-0.3632 3.0609,-0.0668 5.13825,1.43802 2.63189,1.90653 4.16871,4.27736 4.16871,6.431 0,0.98964 -0.26403,2.29633 -0.58673,2.90373 -0.32271,0.60742 -7.50032,8.005014 -15.95024,16.439114 l -15.36349,15.33471 15.77215,15.77604 c 16.5522,16.55629 16.58688,16.59848 16.20892,19.72258 -0.20107,1.66198 -4.65517,6.2946 -6.561,6.82395 -0.82209,0.22834 -1.58672,0.39959 -1.69919,0.38056 -0.11247,-0.019 -0.84863,-0.21618 -1.63591,-0.4381 z"
       id="path7674" />
  </g>
</svg>
